<svg width="128" height="36" viewBox="0 0 128 36" fill="none" xmlns="http://www.w3.org/2000/svg">
<g clip-path="url(#clip0_602_158)">
<path d="M53.3728 15.4206C49.3056 15.4206 46.6499 12.5049 46.6499 8.67913V8.53055C46.6499 4.6491 49.4356 1.77051 53.3728 1.77051C57.3285 1.77051 60.0586 4.57481 60.0586 8.47484V8.62341C60.0586 12.5049 57.4028 15.4206 53.3728 15.4206ZM53.4099 13.4334C55.9171 13.4334 57.4957 11.5206 57.4957 8.64198V8.49341C57.4957 5.76339 55.9728 3.73909 53.3728 3.73909C50.7728 3.73909 49.2313 5.65196 49.2313 8.51198V8.66056C49.2313 11.5577 50.9956 13.4334 53.4099 13.4334Z" fill="black"/>
<path d="M68.6864 7.93626V7.99198C68.6864 9.01341 68.1106 9.88628 66.9221 10.1277C68.2592 10.3506 69.0764 11.0749 69.0764 12.3006V12.3563C69.0764 14.1206 67.5349 15.4206 65.0835 15.4206C62.502 15.4206 61.0906 14.1577 60.8863 12.0406H62.9478C63.1335 13.0992 63.7278 13.712 65.0649 13.712C66.2163 13.712 66.7549 13.2106 66.7549 12.3377V12.282C66.7549 11.4091 66.2349 11.0006 65.1021 11.0006H63.7649V9.49628H64.9163C65.9192 9.49628 66.3649 9.10627 66.3649 8.28912V8.23341C66.3649 7.56483 65.9749 7.08197 64.9349 7.08197C64.0249 7.08197 63.412 7.52769 63.1892 8.4377H61.1463C61.4063 6.20911 63.0963 5.31767 65.0278 5.31767C67.1078 5.31767 68.6864 6.2834 68.6864 7.93626Z" fill="black"/>
<path d="M70.575 15.2349V5.52196H74.4936C76.5365 5.52196 78.0408 6.17197 78.0408 7.95484V7.99198C78.0408 9.01341 77.5022 9.84913 76.3136 10.1277C77.6508 10.3877 78.4679 11.0563 78.4679 12.3192V12.3749C78.4679 14.232 77.1679 15.2349 74.8465 15.2349H70.575ZM74.1036 7.02626H72.8222V9.49628H74.1779C75.255 9.49628 75.7379 9.10627 75.7379 8.21484V8.17769C75.7379 7.28626 75.1622 7.02626 74.1036 7.02626ZM74.4936 11.0006H72.8222V13.7306H74.4193C75.5707 13.7306 76.165 13.3406 76.165 12.3934V12.3563C76.165 11.4277 75.6265 11.0006 74.4936 11.0006Z" fill="black"/>
<path d="M80.7798 18.5592L82.5441 14.2506L78.6998 5.52196H81.1326L83.7141 11.7806L86.0912 5.52196H88.2827L82.9898 18.5592H80.7798Z" fill="black"/>
<path d="M97.3407 15.2349H95.0935V10.9263C94.7592 11.2977 93.9049 12.022 92.2706 12.022C90.4692 12.022 89.0949 10.9263 89.0949 8.32627V5.52196H91.3235V8.08484C91.3235 9.55199 91.8806 10.2206 93.0878 10.2206C94.1649 10.2206 94.7964 9.70056 95.0935 9.29199V5.52196H97.3407V15.2349Z" fill="black"/>
<path d="M105.35 15.2349L101.71 10.4806V15.2349H99.4632V5.52196H101.71V9.83056L105.183 5.52196H107.635L103.865 10.0163L107.95 15.2349H105.35Z" fill="black"/>
<path d="M111.837 13.8049C113.211 13.8049 114.233 13.0806 114.233 11.8363V10.8706H113.081C111.373 10.8706 110.277 11.2606 110.277 12.4492C110.277 13.2663 110.723 13.8049 111.837 13.8049ZM111.298 15.4206C109.515 15.4206 108.048 14.5663 108.048 12.542C108.048 10.2763 110.24 9.45913 113.026 9.45913H114.233V8.9577C114.233 7.65769 113.787 7.00769 112.468 7.00769C111.298 7.00769 110.723 7.56483 110.611 8.53055H108.438C108.624 6.26482 110.425 5.31767 112.598 5.31767C114.771 5.31767 116.48 6.20911 116.48 8.86484V15.2349H114.27V14.0463C113.638 14.882 112.784 15.4206 111.298 15.4206Z" fill="black"/>
<path d="M56.8085 28.6213C56.8085 31.1842 55.1 32.6142 52.0542 32.6142H47.3185V19.3355H55.6571V21.2855H49.7699V24.647H52.1099C55.0257 24.647 56.8085 25.8913 56.8085 28.547V28.6213ZM49.7699 30.7199H51.9799C53.6142 30.7199 54.4314 29.977 54.4314 28.6027V28.5285C54.4314 27.1727 53.6142 26.4299 51.8871 26.4299H49.7699V30.7199Z" fill="black"/>
<path d="M59.0242 35.9385L60.7885 31.6299L56.9442 22.9013H59.3771L61.9585 29.1599L64.3357 22.9013H66.5271L61.2342 35.9385H59.0242Z" fill="black"/>
<path d="M73.5422 32.6142L69.9022 27.8599V32.6142H67.6551V22.9013H69.9022V27.2099L73.3751 22.9013H75.8265L72.0565 27.3956L76.1423 32.6142H73.5422Z" fill="black"/>
<path d="M82.0116 32.6142L79.0587 25.2784V32.6142H77.1273V22.9013H80.2287L82.6616 28.9556L85.113 22.9013H88.0288V32.6142H85.8188V25.2784L82.7545 32.6142H82.0116Z" fill="black"/>
<path d="M94.4257 32.7999C91.5656 32.7999 89.5042 30.9242 89.5042 27.8599V27.7113C89.5042 24.7027 91.5656 22.697 94.3328 22.697C96.7471 22.697 98.92 24.127 98.92 27.5999V28.2499H91.8071C91.8814 30.0885 92.8099 31.1285 94.4814 31.1285C95.8371 31.1285 96.5428 30.5899 96.71 29.6427H98.8828C98.5671 31.6856 96.9143 32.7999 94.4257 32.7999ZM91.8442 26.7456H96.6914C96.58 25.0741 95.7257 24.3313 94.3328 24.3313C92.9771 24.3313 92.0671 25.2413 91.8442 26.7456Z" fill="black"/>
<path d="M104.66 21.3413C103.1 21.3413 102.06 20.2827 101.967 18.7412H103.657C103.713 19.3912 103.991 19.9484 104.66 19.9484C105.347 19.9484 105.663 19.3912 105.737 18.7412H107.409C107.316 20.2827 106.201 21.3413 104.66 21.3413ZM102.617 32.6142H100.37V22.9013H102.617V29.7727L106.814 22.9013H109.043V32.6142H106.814V25.7427L102.617 32.6142Z" fill="black"/>
<path d="M118.337 22.9013V24.5727H115.366V32.6142H113.118V24.5727H110.147V22.9013H118.337Z" fill="black"/>
<path d="M122.524 31.1842C123.899 31.1842 124.92 30.4599 124.92 29.2156V28.2499H123.769C122.06 28.2499 120.964 28.6399 120.964 29.8285C120.964 30.6456 121.41 31.1842 122.524 31.1842ZM121.986 32.7999C120.203 32.7999 118.736 31.9456 118.736 29.9213C118.736 27.6556 120.927 26.8384 123.713 26.8384H124.92V26.337C124.92 25.037 124.474 24.387 123.156 24.387C121.986 24.387 121.41 24.9441 121.299 25.9099H119.126C119.311 23.6441 121.113 22.697 123.286 22.697C125.459 22.697 127.167 23.5884 127.167 26.2442V32.6142H124.957V31.4256C124.326 32.2613 123.471 32.7999 121.986 32.7999Z" fill="black"/>
<path fill-rule="evenodd" clip-rule="evenodd" d="M18.4728 21.5656C17.0017 24.0077 14.7178 25.0841 12.3168 25.0841C7.51633 25.0841 3.94062 21.7403 3.94062 16.7231V16.4751C3.94062 16.2389 3.95062 16.0212 3.96581 15.7936L24.664 15.8255V0.0275913L12.2997 8.86701L0 0V32.5117H24.664V25.0837C22.276 25.0751 20.1021 23.9981 18.4728 21.5656ZM12.3182 22.3594C14.7359 22.3594 16.2159 21.1215 16.4111 18.3331H7.62446C8.00938 20.8438 9.96653 22.3594 12.3182 22.3594ZM29.4287 18.3331H20.5368C20.7313 21.1215 22.2109 22.3594 24.6278 22.3594C26.9795 22.3594 29.0441 20.8438 29.4287 18.3331ZM28.3074 29.8572C33.3904 29.051 37.2761 24.6487 37.2761 19.3389C37.2761 14.029 33.3904 9.62676 28.3074 8.8205V6.27237C34.7884 7.09818 39.7986 12.6334 39.7986 19.3389C39.7986 26.0443 34.7884 31.5796 28.3074 32.4054V29.8572ZM28.3074 27.2925C31.9894 26.5179 34.7537 23.2512 34.7537 19.3388C34.7537 15.4264 31.9894 12.1596 28.3074 11.385V13.9899C30.5816 14.7042 32.2313 16.8288 32.2313 19.3388C32.2313 21.8487 30.5816 23.9733 28.3074 24.6876V27.2925Z" fill="black"/>
<path fill-rule="evenodd" clip-rule="evenodd" d="M37.2761 19.339C37.2761 24.6488 33.3904 29.0511 28.3074 29.8573V32.4055C34.7884 31.5796 39.7986 26.0444 39.7986 19.339C39.7986 12.6335 34.7884 7.09827 28.3074 6.27246V8.8206C33.3904 9.62686 37.2761 14.0291 37.2761 19.339ZM34.7537 19.3389C34.7537 23.2513 31.9894 26.518 28.3074 27.2926V24.6877C30.5816 23.9734 32.2312 21.8488 32.2312 19.3389C32.2312 16.8289 30.5816 14.7043 28.3074 13.99V11.3851C31.9894 12.1597 34.7537 15.4265 34.7537 19.3389Z" fill="black"/>
</g>
<defs>
<clipPath id="clip0_602_158">
<rect width="128" height="36" fill="white"/>
</clipPath>
</defs>
</svg>
