<svg width="790" height="110" viewBox="0 0 790 110" fill="none" xmlns="http://www.w3.org/2000/svg">
<rect y="24.8369" width="61.1627" height="61.1627" rx="30.5814" fill="white"/>
<path d="M27.7493 45.8984C25.8985 44.7207 23.4766 46.0502 23.4766 48.2439V62.9816C23.4766 65.1754 25.8985 66.5049 27.7493 65.3271L39.3289 57.9583C41.0456 56.8658 41.0456 54.3598 39.3289 53.2673L27.7493 45.8984Z" fill="black"/>
<path fill-rule="evenodd" clip-rule="evenodd" d="M85.9998 53.615V54.6967V54.6911C85.9998 54.5123 86.0059 54.3336 86.0101 54.1568C86.0059 53.9781 85.9998 53.7994 85.9998 53.6206V53.615Z" fill="white" fill-opacity="0.4"/>
<path fill-rule="evenodd" clip-rule="evenodd" d="M99.2463 53.5173C99.0956 53.0037 98.7819 52.5541 98.3381 52.2305C97.8964 51.907 97.3577 51.7339 96.8004 51.7339C96.2452 51.7339 95.7044 51.907 95.2627 52.2305C94.819 52.5541 94.5052 53.0037 94.3546 53.5173C94.2823 53.7619 94.2514 54.0083 94.2348 54.2585C94.2286 54.3582 94.2328 54.456 94.2307 54.5557C94.2328 54.6536 94.2286 54.7533 94.2348 54.8511C94.2514 55.1032 94.2823 55.3477 94.3546 55.5923C94.5052 56.1059 94.819 56.5555 95.2627 56.8791C95.7044 57.2026 96.2452 57.3776 96.8004 57.3776C97.3577 57.3776 97.8964 57.2026 98.3381 56.8791C98.7819 56.5555 99.0956 56.1059 99.2463 55.5923C99.3185 55.3477 99.3495 55.1032 99.366 54.8511C99.3722 54.7533 99.368 54.6536 99.3701 54.5557C99.368 54.456 99.3722 54.3582 99.366 54.2585C99.3495 54.0083 99.3185 53.7619 99.2463 53.5173Z" fill="white"/>
<path fill-rule="evenodd" clip-rule="evenodd" d="M110.552 53.5173C110.402 53.0037 110.088 52.5541 109.644 52.2305C109.203 51.907 108.664 51.7339 108.107 51.7339C107.551 51.7339 107.011 51.907 106.569 52.2305C106.125 52.5541 105.811 53.0037 105.661 53.5173C105.588 53.7619 105.558 54.0083 105.541 54.2585C105.535 54.3582 105.539 54.456 105.537 54.5557C105.539 54.6536 105.535 54.7533 105.541 54.8511C105.558 55.1032 105.588 55.3477 105.661 55.5923C105.811 56.1059 106.125 56.5555 106.569 56.8791C107.011 57.2026 107.551 57.3776 108.107 57.3776C108.664 57.3776 109.203 57.2026 109.644 56.8791C110.088 56.5555 110.402 56.1059 110.552 55.5923C110.625 55.3477 110.656 55.1032 110.672 54.8511C110.678 54.7533 110.674 54.6536 110.676 54.5557C110.674 54.456 110.678 54.3582 110.672 54.2585C110.656 54.0083 110.625 53.7619 110.552 53.5173Z" fill="white"/>
<path fill-rule="evenodd" clip-rule="evenodd" d="M121.859 53.5173C121.708 53.0037 121.394 52.5541 120.95 52.2305C120.509 51.907 119.97 51.7339 119.413 51.7339C118.857 51.7339 118.317 51.907 117.875 52.2305C117.431 52.5541 117.118 53.0037 116.967 53.5173C116.895 53.7619 116.864 54.0083 116.847 54.2585C116.841 54.3582 116.845 54.456 116.843 54.5557C116.845 54.6536 116.841 54.7533 116.847 54.8511C116.864 55.1032 116.895 55.3477 116.967 55.5923C117.118 56.1059 117.431 56.5555 117.875 56.8791C118.317 57.2026 118.857 57.3776 119.413 57.3776C119.97 57.3776 120.509 57.2026 120.95 56.8791C121.394 56.5555 121.708 56.1059 121.859 55.5923C121.931 55.3477 121.962 55.1032 121.978 54.8511C121.984 54.7533 121.98 54.6536 121.982 54.5557C121.98 54.456 121.984 54.3582 121.978 54.2585C121.962 54.0083 121.931 53.7619 121.859 53.5173Z" fill="white"/>
<path fill-rule="evenodd" clip-rule="evenodd" d="M133.295 52.3771C133.278 52.1269 133.247 51.8805 133.175 51.6359C133.024 51.1224 132.711 50.6728 132.267 50.3492C131.825 50.0256 131.286 49.8525 130.729 49.8525C130.174 49.8525 129.633 50.0256 129.191 50.3492C128.748 50.6728 128.434 51.1224 128.283 51.6359C128.211 51.8805 128.18 52.1269 128.164 52.3771C128.149 52.6556 128.149 52.9321 128.149 53.2087V53.2143V55.8951V55.9007C128.149 56.1772 128.149 56.4538 128.164 56.7322C128.18 56.9843 128.211 57.2288 128.283 57.4734C128.434 57.987 128.748 58.4366 129.191 58.7602C129.633 59.0837 130.174 59.2587 130.729 59.2587C131.286 59.2587 131.825 59.0837 132.267 58.7602C132.711 58.4366 133.024 57.987 133.175 57.4734C133.247 57.2288 133.278 56.9843 133.295 56.7322C133.309 56.4538 133.309 56.1772 133.309 55.9007V55.8951V53.2143V53.2087C133.309 52.9321 133.309 52.6556 133.295 52.3771Z" fill="white"/>
<path fill-rule="evenodd" clip-rule="evenodd" d="M143.476 53.1712C143.034 52.8476 142.495 52.6746 141.938 52.6746C141.383 52.6746 140.842 52.8476 140.401 53.1712C139.957 53.4948 139.643 53.9444 139.492 54.458C139.484 54.4899 139.484 54.5238 139.476 54.5558C139.484 54.5878 139.484 54.6198 139.492 54.6517C139.643 55.1653 139.957 55.6149 140.401 55.9385C140.842 56.2621 141.383 56.437 141.938 56.437C142.495 56.437 143.034 56.2621 143.476 55.9385C143.92 55.6149 144.233 55.1653 144.384 54.6517C144.392 54.6198 144.392 54.5878 144.401 54.5558C144.392 54.5238 144.392 54.4899 144.384 54.458C144.233 53.9444 143.92 53.4948 143.476 53.1712Z" fill="white"/>
<path fill-rule="evenodd" clip-rule="evenodd" d="M155.593 51.6359C155.442 51.1224 155.129 50.6728 154.685 50.3492C154.243 50.0256 153.704 49.8525 153.147 49.8525C152.592 49.8525 152.051 50.0256 151.609 50.3492C151.166 50.6728 150.852 51.1224 150.701 51.6359C150.629 51.8805 150.598 52.1269 150.582 52.3771C150.567 52.6556 150.567 52.9321 150.567 53.2087V55.9007C150.567 56.1772 150.567 56.4538 150.582 56.7322C150.598 56.9843 150.629 57.2288 150.701 57.4734C150.852 57.987 151.166 58.4366 151.609 58.7602C152.051 59.0837 152.592 59.2587 153.147 59.2587C153.704 59.2587 154.243 59.0837 154.685 58.7602C155.129 58.4366 155.442 57.987 155.593 57.4734C155.665 57.2288 155.696 56.9843 155.713 56.7322C155.727 56.4538 155.727 56.1772 155.727 55.9007V53.2087C155.727 52.9321 155.727 52.6556 155.713 52.3771C155.696 52.1269 155.665 51.8805 155.593 51.6359Z" fill="white"/>
<path fill-rule="evenodd" clip-rule="evenodd" d="M167.04 51.4365C167.023 51.1863 166.992 50.9398 166.92 50.6953C166.769 50.1817 166.456 49.7321 166.012 49.4085C165.57 49.0849 165.031 48.9119 164.474 48.9119C163.919 48.9119 163.378 49.0849 162.936 49.4085C162.493 49.7321 162.179 50.1817 162.028 50.6953C161.956 50.9398 161.925 51.1863 161.908 51.4365C161.894 51.7149 161.894 51.9914 161.894 52.268V52.2736V56.8356V56.8413C161.894 57.1178 161.894 57.3943 161.908 57.6728C161.925 57.9248 161.956 58.1694 162.028 58.414C162.179 58.9275 162.493 59.3771 162.936 59.7007C163.378 60.0243 163.919 60.1992 164.474 60.1992C165.031 60.1992 165.57 60.0243 166.012 59.7007C166.456 59.3771 166.769 58.9275 166.92 58.414C166.992 58.1694 167.023 57.9248 167.04 57.6728C167.054 57.3943 167.054 57.1178 167.054 56.8413V56.8356V52.2736V52.268C167.054 51.9914 167.054 51.7149 167.04 51.4365Z" fill="white"/>
<path fill-rule="evenodd" clip-rule="evenodd" d="M178.247 40.3486C178.096 39.835 177.782 39.3854 177.338 39.0618C176.897 38.7383 176.358 38.5652 175.801 38.5652C175.245 38.5652 174.705 38.7383 174.263 39.0618C173.819 39.3854 173.506 39.835 173.355 40.3486C173.283 40.5932 173.252 40.8396 173.235 41.0898C173.221 41.3682 173.221 41.6448 173.221 41.9213V67.1881C173.221 67.4646 173.221 67.7412 173.235 68.0196C173.252 68.2717 173.283 68.5163 173.355 68.7589C173.506 69.2744 173.819 69.724 174.263 70.0476C174.705 70.3711 175.245 70.5461 175.801 70.5461C176.358 70.5461 176.897 70.3711 177.338 70.0476C177.782 69.724 178.096 69.2744 178.247 68.7589C178.319 68.5163 178.35 68.2717 178.366 68.0196C178.381 67.7412 178.381 67.4646 178.381 67.1881V41.9213C178.381 41.6448 178.381 41.3682 178.366 41.0898C178.35 40.8396 178.319 40.5932 178.247 40.3486Z" fill="white"/>
<path fill-rule="evenodd" clip-rule="evenodd" d="M189.693 49.5554C189.677 49.3052 189.646 49.0587 189.573 48.8142C189.423 48.3006 189.109 47.851 188.665 47.5274C188.224 47.2038 187.685 47.0308 187.128 47.0308C186.572 47.0308 186.032 47.2038 185.59 47.5274C185.146 47.851 184.832 48.3006 184.682 48.8142C184.61 49.0587 184.579 49.3052 184.562 49.5554C184.548 49.8338 184.548 50.1103 184.548 50.3869V50.3925V57.7763V57.782C184.548 58.0585 184.548 59.2757 184.562 59.5541C184.579 59.8062 184.61 60.0508 184.682 60.2953C184.832 60.8089 185.146 61.2585 185.59 61.5821C186.032 61.9056 186.572 62.0806 187.128 62.0806C187.685 62.0806 188.224 61.9056 188.665 61.5821C189.109 61.2585 189.423 60.8089 189.573 60.2953C189.646 60.0508 189.677 59.8062 189.693 59.5541C189.708 59.2757 189.708 58.0585 189.708 57.782V57.7763V50.3925V50.3869C189.708 50.1103 189.708 49.8338 189.693 49.5554Z" fill="white"/>
<path fill-rule="evenodd" clip-rule="evenodd" d="M201.02 38.268C201.003 38.0178 200.972 37.7714 200.9 37.5268C200.749 37.0132 200.436 36.5636 199.992 36.2401C199.55 35.9165 199.012 35.7434 198.454 35.7434C197.899 35.7434 197.358 35.9165 196.917 36.2401C196.473 36.5636 196.159 37.0132 196.008 37.5268C195.936 37.7714 195.905 38.0178 195.889 38.268C195.874 38.5464 195.874 38.823 195.874 39.0995V39.1052V70.0044V70.01C195.874 70.2884 195.874 70.5631 195.889 70.8415C195.905 71.0936 195.936 71.3382 196.008 71.5808C196.159 72.0963 196.473 72.5459 196.917 72.8695C197.358 73.1931 197.899 73.368 198.454 73.368C199.012 73.368 199.55 73.1931 199.992 72.8695C200.436 72.5459 200.749 72.0963 200.9 71.5808C200.972 71.3382 201.003 71.0936 201.02 70.8415C201.034 70.5631 201.034 70.2884 201.034 70.01V70.0044V39.1052V39.0995C201.034 38.823 201.034 38.5464 201.02 38.268Z" fill="white"/>
<path fill-rule="evenodd" clip-rule="evenodd" d="M212.347 35.4462C212.33 35.196 212.299 34.9496 212.227 34.705C212.076 34.1915 211.762 33.7418 211.319 33.4183C210.877 33.0947 210.338 32.9216 209.781 32.9216C209.226 32.9216 208.685 33.0947 208.243 33.4183C207.799 33.7418 207.486 34.1915 207.335 34.705C207.263 34.9496 207.232 35.196 207.215 35.4462C207.201 35.7247 207.201 36.0012 207.201 36.2777V36.2834V72.8263V72.8319C207.201 73.1104 207.201 73.385 207.215 73.6634C207.232 73.9155 207.263 74.1601 207.335 74.4028C207.486 74.9182 207.799 75.3678 208.243 75.6914C208.685 76.015 209.226 76.1899 209.781 76.1899C210.338 76.1899 210.877 76.015 211.319 75.6914C211.762 75.3678 212.076 74.9182 212.227 74.4028C212.299 74.1601 212.33 73.9155 212.347 73.6634C212.361 73.385 212.361 73.1104 212.361 72.8319V72.8263V36.2834V36.2777C212.361 36.0012 212.361 35.7247 212.347 35.4462Z" fill="white"/>
<path fill-rule="evenodd" clip-rule="evenodd" d="M223.673 49.5554C223.657 49.3052 223.626 49.0587 223.554 48.8142C223.403 48.3006 223.089 47.851 222.646 47.5274C222.204 47.2038 221.665 47.0308 221.108 47.0308C220.553 47.0308 220.012 47.2038 219.57 47.5274C219.126 47.851 218.813 48.3006 218.662 48.8142C218.59 49.0587 218.559 49.3052 218.542 49.5554C218.528 49.8338 218.528 50.1103 218.528 50.3869V50.3925V58.717V58.7226C218.528 58.9991 218.528 59.2757 218.542 59.5541C218.559 59.8062 218.59 60.0508 218.662 60.2953C218.813 60.8089 219.126 61.2585 219.57 61.5821C220.012 61.9056 220.553 62.0806 221.108 62.0806C221.665 62.0806 222.204 61.9056 222.646 61.5821C223.089 61.2585 223.403 60.8089 223.554 60.2953C223.626 60.0508 223.657 59.8062 223.673 59.5541C223.688 59.2757 223.688 58.9991 223.688 58.7226V58.717V50.3925V50.3869C223.688 50.1103 223.688 49.8338 223.673 49.5554Z" fill="white"/>
<path fill-rule="evenodd" clip-rule="evenodd" d="M234.88 27.1801C234.73 26.6666 234.416 26.2169 233.972 25.8934C233.53 25.5698 232.992 25.3967 232.435 25.3967C231.879 25.3967 231.339 25.5698 230.897 25.8934C230.453 26.2169 230.139 26.6666 229.989 27.1801C229.916 27.4247 229.885 27.6711 229.869 27.9213C229.854 28.1998 229.854 28.4763 229.854 28.7528V80.3569C229.854 80.6353 229.854 80.9099 229.869 81.1884C229.885 81.4405 229.916 81.685 229.989 81.9277C230.139 82.4431 230.453 82.8928 230.897 83.2163C231.339 83.5399 231.879 83.7149 232.435 83.7149C232.992 83.7149 233.53 83.5399 233.972 83.2163C234.416 82.8928 234.73 82.4431 234.88 81.9277C234.953 81.685 234.984 81.4405 235 81.1884C235.015 80.9099 235.015 80.6353 235.015 80.3569V28.7528C235.015 28.4763 235.015 28.1998 235 27.9213C234.984 27.6711 234.953 27.4247 234.88 27.1801Z" fill="white"/>
<path fill-rule="evenodd" clip-rule="evenodd" d="M246.327 45.7929C246.31 45.5427 246.28 45.2963 246.207 45.0517C246.057 44.5381 245.743 44.0885 245.299 43.765C244.857 43.4414 244.319 43.2683 243.761 43.2683C243.206 43.2683 242.665 43.4414 242.224 43.765C241.78 44.0885 241.466 44.5381 241.316 45.0517C241.243 45.2963 241.212 45.5427 241.196 45.7929C241.181 46.0713 241.181 46.3479 241.181 46.6244V46.6301V62.4794V62.4851C241.181 62.7616 241.181 63.0382 241.196 63.3166C241.212 63.5687 241.243 63.8132 241.316 64.0578C241.466 64.5714 241.78 65.021 242.224 65.3445C242.665 65.6681 243.206 65.8431 243.761 65.8431C244.319 65.8431 244.857 65.6681 245.299 65.3445C245.743 65.021 246.057 64.5714 246.207 64.0578C246.28 63.8132 246.31 63.5687 246.327 63.3166C246.341 63.0382 246.341 62.7616 246.341 62.4851V62.4794V46.6301V46.6244C246.341 46.3479 246.341 46.0713 246.327 45.7929Z" fill="white" fill-opacity="0.4"/>
<path fill-rule="evenodd" clip-rule="evenodd" d="M257.534 38.4675C257.383 37.9539 257.07 37.5043 256.626 37.1807C256.184 36.8572 255.645 36.6841 255.088 36.6841C254.533 36.6841 253.992 36.8572 253.55 37.1807C253.107 37.5043 252.793 37.9539 252.642 38.4675C252.57 38.712 252.539 38.9585 252.523 39.2087C252.508 39.4871 252.508 39.7637 252.508 40.0402V69.0695C252.508 69.3479 252.508 69.6225 252.523 69.901C252.539 70.153 252.57 70.3976 252.642 70.6403C252.793 71.1557 253.107 71.6054 253.55 71.9289C253.992 72.2525 254.533 72.4275 255.088 72.4275C255.645 72.4275 256.184 72.2525 256.626 71.9289C257.07 71.6054 257.383 71.1557 257.534 70.6403C257.606 70.3976 257.637 70.153 257.654 69.901C257.668 69.6225 257.668 69.3479 257.668 69.0695V40.0402C257.668 39.7637 257.668 39.4871 257.654 39.2087C257.637 38.9585 257.606 38.712 257.534 38.4675Z" fill="white" fill-opacity="0.4"/>
<path fill-rule="evenodd" clip-rule="evenodd" d="M268.861 52.5766C268.71 52.063 268.396 51.6134 267.952 51.2899C267.511 50.9663 266.972 50.7932 266.415 50.7932C265.86 50.7932 265.319 50.9663 264.877 51.2899C264.433 51.6134 264.12 52.063 263.969 52.5766C263.897 52.8212 263.866 53.0676 263.849 53.3178C263.835 53.5962 263.835 53.8728 263.835 54.1493V54.9601C263.835 55.2367 263.835 55.5132 263.849 55.7916C263.866 56.0437 263.897 56.2883 263.969 56.5328C264.12 57.0464 264.433 57.496 264.877 57.8196C265.319 58.1432 265.86 58.3181 266.415 58.3181C266.972 58.3181 267.511 58.1432 267.952 57.8196C268.396 57.496 268.71 57.0464 268.861 56.5328C268.933 56.2883 268.964 56.0437 268.98 55.7916C268.995 55.5132 268.995 55.2367 268.995 54.9601V54.1493C268.995 53.8728 268.995 53.5962 268.98 53.3178C268.964 53.0676 268.933 52.8212 268.861 52.5766Z" fill="white" fill-opacity="0.4"/>
<path fill-rule="evenodd" clip-rule="evenodd" d="M280.307 30.7431C280.291 30.4929 280.26 30.2465 280.187 30.0019C280.037 29.4883 279.723 29.0387 279.279 28.7152C278.838 28.3916 278.299 28.2185 277.742 28.2185C277.186 28.2185 276.646 28.3916 276.204 28.7152C275.76 29.0387 275.446 29.4883 275.296 30.0019C275.224 30.2465 275.193 30.4929 275.176 30.7431C275.162 31.0215 275.162 31.2981 275.162 31.5746V31.5803V77.5293V77.535C275.162 77.8134 275.162 78.088 275.176 78.3665C275.193 78.6185 275.224 78.8631 275.296 79.1058C275.446 79.6212 275.76 80.0709 276.204 80.3944C276.646 80.718 277.186 80.8929 277.742 80.8929C278.299 80.8929 278.838 80.718 279.279 80.3944C279.723 80.0709 280.037 79.6212 280.187 79.1058C280.26 78.8631 280.291 78.6185 280.307 78.3665C280.322 78.088 280.322 77.8134 280.322 77.535V77.5293V31.5803V31.5746C280.322 31.2981 280.322 31.0215 280.307 30.7431Z" fill="white" fill-opacity="0.4"/>
<path fill-rule="evenodd" clip-rule="evenodd" d="M291.514 18.7146C291.363 18.201 291.05 17.7514 290.606 17.4278C290.164 17.1042 289.626 16.9312 289.068 16.9312C288.513 16.9312 287.972 17.1042 287.531 17.4278C287.087 17.7514 286.773 18.201 286.622 18.7146C286.55 18.9591 286.519 19.2056 286.503 19.4558C286.488 19.7342 286.488 20.0107 286.488 20.2873V20.2929V88.8167V88.8224C286.488 89.1008 286.488 89.3754 286.503 89.6539C286.519 89.906 286.55 90.1505 286.622 90.3932C286.773 90.9086 287.087 91.3583 287.531 91.6818C287.972 92.0054 288.513 92.1804 289.068 92.1804C289.626 92.1804 290.164 92.0054 290.606 91.6818C291.05 91.3583 291.363 90.9086 291.514 90.3932C291.586 90.1505 291.617 89.906 291.634 89.6539C291.648 89.3754 291.648 89.1008 291.648 88.8224V20.2873C291.648 20.0107 291.648 19.7342 291.634 19.4558C291.617 19.2056 291.586 18.9591 291.514 18.7146Z" fill="white" fill-opacity="0.4"/>
<path fill-rule="evenodd" clip-rule="evenodd" d="M302.961 25.0991C302.944 24.8489 302.913 24.6024 302.841 24.3579C302.69 23.8443 302.376 23.3947 301.933 23.0711C301.491 22.7475 300.952 22.5745 300.395 22.5745C299.84 22.5745 299.299 22.7475 298.857 23.0711C298.414 23.3947 298.1 23.8443 297.949 24.3579C297.877 24.6024 297.846 24.8489 297.829 25.0991C297.815 25.3775 297.815 25.654 297.815 25.9306V25.9362V83.1727V83.1783C297.815 83.4567 297.815 83.7314 297.829 84.0098C297.846 84.2619 297.877 84.5064 297.949 84.7491C298.1 85.2646 298.414 85.7142 298.857 86.0378C299.299 86.3613 299.84 86.5363 300.395 86.5363C300.952 86.5363 301.491 86.3613 301.933 86.0378C302.376 85.7142 302.69 85.2646 302.841 84.7491C302.913 84.5064 302.944 84.2619 302.961 84.0098C302.975 83.7314 302.975 83.4567 302.975 83.1783V83.1727V25.9362V25.9306C302.975 25.654 302.975 25.3775 302.961 25.0991Z" fill="white" fill-opacity="0.4"/>
<path fill-rule="evenodd" clip-rule="evenodd" d="M314.287 38.268C314.271 38.0178 314.24 37.7714 314.168 37.5268C314.017 37.0132 313.703 36.5636 313.26 36.2401C312.818 35.9165 312.279 35.7434 311.722 35.7434C311.167 35.7434 310.626 35.9165 310.184 36.2401C309.74 36.5636 309.427 37.0132 309.276 37.5268C309.204 37.7714 309.173 38.0178 309.156 38.268C309.142 38.5464 309.142 38.823 309.142 39.0995V39.1052V70.0044V70.01C309.142 70.2884 309.142 70.5631 309.156 70.8415C309.173 71.0936 309.204 71.3382 309.276 71.5808C309.427 72.0963 309.74 72.5459 310.184 72.8695C310.626 73.1931 311.167 73.368 311.722 73.368C312.279 73.368 312.818 73.1931 313.26 72.8695C313.703 72.5459 314.017 72.0963 314.168 71.5808C314.24 71.3382 314.271 71.0936 314.287 70.8415C314.302 70.5631 314.302 70.2884 314.302 70.01V70.0044V39.1052V39.0995C314.302 38.823 314.302 38.5464 314.287 38.268Z" fill="white" fill-opacity="0.4"/>
<path fill-rule="evenodd" clip-rule="evenodd" d="M325.494 24.3581C325.344 23.8445 325.03 23.3949 324.586 23.0714C324.145 22.7478 323.606 22.5747 323.049 22.5747C322.493 22.5747 321.953 22.7478 321.511 23.0714C321.067 23.3949 320.753 23.8445 320.603 24.3581C320.53 24.6027 320.499 24.8491 320.483 25.0993C320.469 25.3777 320.469 25.6543 320.469 25.9308V25.9365V83.1729V83.1785C320.469 83.457 320.469 83.7316 320.483 84.01C320.499 84.2621 320.53 84.5067 320.603 84.7494C320.753 85.2648 321.067 85.7144 321.511 86.038C321.953 86.3616 322.493 86.5365 323.049 86.5365C323.606 86.5365 324.145 86.3616 324.586 86.038C325.03 85.7144 325.344 85.2648 325.494 84.7494C325.567 84.5067 325.598 84.2621 325.614 84.01C325.629 83.7316 325.629 83.457 325.629 83.1785V25.9308C325.629 25.6543 325.629 25.3777 325.614 25.0993C325.598 24.8491 325.567 24.6027 325.494 24.3581Z" fill="white" fill-opacity="0.4"/>
<path fill-rule="evenodd" clip-rule="evenodd" d="M336.941 28.8615C336.924 28.6113 336.893 28.3649 336.821 28.1203C336.67 27.6067 336.357 27.1571 335.913 26.8336C335.471 26.51 334.932 26.3369 334.375 26.3369C333.82 26.3369 333.279 26.51 332.837 26.8336C332.394 27.1571 332.08 27.6067 331.929 28.1203C331.857 28.3649 331.826 28.6113 331.81 28.8615C331.795 29.1399 331.795 29.4165 331.795 29.693V29.6987V79.4102V79.4158C331.795 79.6943 331.795 79.9689 331.81 80.2473C331.826 80.4994 331.857 80.744 331.929 80.9867C332.08 81.5021 332.394 81.9517 332.837 82.2753C333.279 82.5989 333.82 82.7738 334.375 82.7738C334.932 82.7738 335.471 82.5989 335.913 82.2753C336.357 81.9517 336.67 81.5021 336.821 80.9867C336.893 80.744 336.924 80.4994 336.941 80.2473C336.955 79.9689 336.955 79.6943 336.955 79.4158V79.4102V29.6987V29.693C336.955 29.4165 336.955 29.1399 336.941 28.8615Z" fill="white" fill-opacity="0.4"/>
<path fill-rule="evenodd" clip-rule="evenodd" d="M348.148 45.0517C347.997 44.5381 347.684 44.0885 347.24 43.765C346.798 43.4414 346.259 43.2683 345.702 43.2683C345.147 43.2683 344.606 43.4414 344.164 43.765C343.721 44.0885 343.407 44.5381 343.256 45.0517C343.184 45.2963 343.153 45.5427 343.137 45.7929C343.122 46.0713 343.122 46.3479 343.122 46.6244V62.4851C343.122 62.7616 343.122 63.0382 343.137 63.3166C343.153 63.5687 343.184 63.8132 343.256 64.0578C343.407 64.5714 343.721 65.021 344.164 65.3445C344.606 65.6681 345.147 65.8431 345.702 65.8431C346.259 65.8431 346.798 65.6681 347.24 65.3445C347.684 65.021 347.997 64.5714 348.148 64.0578C348.22 63.8132 348.251 63.5687 348.268 63.3166C348.282 63.0382 348.282 62.7616 348.282 62.4851V46.6244C348.282 46.3479 348.282 46.0713 348.268 45.7929C348.251 45.5427 348.22 45.2963 348.148 45.0517Z" fill="white" fill-opacity="0.4"/>
<path fill-rule="evenodd" clip-rule="evenodd" d="M359.594 42.0305C359.578 41.7803 359.547 41.5338 359.475 41.2893C359.324 40.7757 359.01 40.3261 358.566 40.0025C358.125 39.6789 357.586 39.5059 357.029 39.5059C356.474 39.5059 355.933 39.6789 355.491 40.0025C355.047 40.3261 354.734 40.7757 354.583 41.2893C354.511 41.5338 354.48 41.7803 354.463 42.0305C354.449 42.3089 354.449 42.5854 354.449 42.862V42.8676V66.2419V66.2475C354.449 66.5241 354.449 66.8006 354.463 67.079C354.48 67.3311 354.511 67.5757 354.583 67.8184C354.734 68.3338 355.047 68.7834 355.491 69.107C355.933 69.4306 356.474 69.6055 357.029 69.6055C357.586 69.6055 358.125 69.4306 358.566 69.107C359.01 68.7834 359.324 68.3338 359.475 67.8184C359.547 67.5757 359.578 67.3311 359.594 67.079C359.609 66.8006 359.609 66.5241 359.609 66.2475V66.2419V42.8676V42.862C359.609 42.5854 359.609 42.3089 359.594 42.0305Z" fill="white" fill-opacity="0.4"/>
<path fill-rule="evenodd" clip-rule="evenodd" d="M370.802 46.9328C370.651 46.4192 370.337 45.9696 369.893 45.6461C369.452 45.3225 368.913 45.1494 368.356 45.1494C367.8 45.1494 367.26 45.3225 366.818 45.6461C366.374 45.9696 366.06 46.4192 365.91 46.9328C365.838 47.1774 365.807 47.4238 365.79 47.674C365.776 47.9524 365.776 48.229 365.776 48.5055V60.6037C365.776 60.8803 365.776 61.1568 365.79 61.4352C365.807 61.6873 365.838 61.9319 365.91 62.1764C366.06 62.69 366.374 63.1396 366.818 63.4632C367.26 63.7868 367.8 63.9617 368.356 63.9617C368.913 63.9617 369.452 63.7868 369.893 63.4632C370.337 63.1396 370.651 62.69 370.802 62.1764C370.874 61.9319 370.905 61.6873 370.921 61.4352C370.936 61.1568 370.936 60.8803 370.936 60.6037V48.5055C370.936 48.229 370.936 47.9524 370.921 47.674C370.905 47.4238 370.874 47.1774 370.802 46.9328Z" fill="white" fill-opacity="0.4"/>
<path fill-rule="evenodd" clip-rule="evenodd" d="M382.248 51.4365C382.231 51.1863 382.2 50.9398 382.128 50.6953C381.977 50.1817 381.664 49.7321 381.22 49.4085C380.778 49.0849 380.24 48.9119 379.682 48.9119C379.127 48.9119 378.586 49.0849 378.145 49.4085C377.701 49.7321 377.387 50.1817 377.236 50.6953C377.164 50.9398 377.133 51.1863 377.117 51.4365C377.102 51.7149 377.102 51.9914 377.102 52.268V52.2736V56.8356V56.8413C377.102 57.1178 377.102 57.3943 377.117 57.6728C377.133 57.9248 377.164 58.1694 377.236 58.414C377.387 58.9275 377.701 59.3771 378.145 59.7007C378.586 60.0243 379.127 60.1992 379.682 60.1992C380.24 60.1992 380.778 60.0243 381.22 59.7007C381.664 59.3771 381.977 58.9275 382.128 58.414C382.2 58.1694 382.231 57.9248 382.248 57.6728C382.262 57.3943 382.262 57.1178 382.262 56.8413V56.8356V52.2736V52.268C382.262 51.9914 382.262 51.7149 382.248 51.4365Z" fill="white" fill-opacity="0.4"/>
<path fill-rule="evenodd" clip-rule="evenodd" d="M393.575 19.4558C393.558 19.2056 393.527 18.9591 393.455 18.7146C393.304 18.201 392.99 17.7514 392.547 17.4278C392.105 17.1042 391.566 16.9312 391.009 16.9312C390.454 16.9312 389.913 17.1042 389.471 17.4278C389.028 17.7514 388.714 18.201 388.563 18.7146C388.491 18.9591 388.46 19.2056 388.443 19.4558C388.429 19.7342 388.429 20.0107 388.429 20.2873V20.2929V88.8167V88.8224C388.429 89.1008 388.429 89.3754 388.443 89.6539C388.46 89.906 388.491 90.1505 388.563 90.3932C388.714 90.9086 389.028 91.3583 389.471 91.6818C389.913 92.0054 390.454 92.1804 391.009 92.1804C391.566 92.1804 392.105 92.0054 392.547 91.6818C392.99 91.3583 393.304 90.9086 393.455 90.3932C393.527 90.1505 393.558 89.906 393.575 89.6539C393.589 89.3754 393.589 89.1008 393.589 88.8224V88.8167V20.2929V20.2873C393.589 20.0107 393.589 19.7342 393.575 19.4558Z" fill="white" fill-opacity="0.4"/>
<path fill-rule="evenodd" clip-rule="evenodd" d="M404.901 6.28682C404.885 6.03661 404.854 5.79017 404.781 5.54561C404.631 5.03204 404.317 4.58242 403.873 4.25885C403.432 3.93528 402.893 3.76221 402.336 3.76221C401.78 3.76221 401.24 3.93528 400.798 4.25885C400.354 4.58242 400.04 5.03204 399.89 5.54561C399.818 5.79017 399.787 6.03661 399.77 6.28682C399.756 6.56524 399.756 6.84178 399.756 7.11832V7.12397V101.985V101.991C399.756 102.269 399.756 102.544 399.77 102.822C399.787 103.074 399.818 103.319 399.89 103.561C400.04 104.077 400.354 104.527 400.798 104.85C401.24 105.174 401.78 105.349 402.336 105.349C402.893 105.349 403.432 105.174 403.873 104.85C404.317 104.527 404.631 104.077 404.781 103.561C404.854 103.319 404.885 103.074 404.901 102.822C404.916 102.544 404.916 102.269 404.916 101.991V101.985V7.12397V7.11832C404.916 6.84178 404.916 6.56524 404.901 6.28682Z" fill="white" fill-opacity="0.4"/>
<path fill-rule="evenodd" clip-rule="evenodd" d="M416.108 23.4174C415.958 22.9039 415.644 22.4542 415.2 22.1307C414.759 21.8071 414.22 21.634 413.663 21.634C413.107 21.634 412.567 21.8071 412.125 22.1307C411.681 22.4542 411.367 22.9039 411.217 23.4174C411.144 23.662 411.113 23.9084 411.097 24.1586C411.083 24.4371 411.083 24.7136 411.083 24.9901V24.9958V84.1135V84.1191C411.083 84.3975 411.083 84.6722 411.097 84.9506C411.113 85.2027 411.144 85.4472 411.217 85.6899C411.367 86.2054 411.681 86.655 412.125 86.9786C412.567 87.3021 413.107 87.4771 413.663 87.4771C414.22 87.4771 414.759 87.3021 415.2 86.9786C415.644 86.655 415.958 86.2054 416.108 85.6899C416.181 85.4472 416.212 85.2027 416.228 84.9506C416.243 84.6722 416.243 84.3975 416.243 84.1191V24.9901C416.243 24.7136 416.243 24.4371 416.228 24.1586C416.212 23.9084 416.181 23.662 416.108 23.4174Z" fill="white" fill-opacity="0.4"/>
<path fill-rule="evenodd" clip-rule="evenodd" d="M427.555 29.8024C427.538 29.5522 427.507 29.3058 427.435 29.0612C427.284 28.5477 426.971 28.098 426.527 27.7745C426.085 27.4509 425.546 27.2778 424.989 27.2778C424.434 27.2778 423.893 27.4509 423.452 27.7745C423.008 28.098 422.694 28.5477 422.543 29.0612C422.471 29.3058 422.44 29.5522 422.424 29.8024C422.409 30.0809 422.409 30.3574 422.409 30.6339V30.6396V78.4699V78.4755C422.409 78.7539 422.409 79.0286 422.424 79.307C422.44 79.5591 422.471 79.8037 422.543 80.0463C422.694 80.5618 423.008 81.0114 423.452 81.335C423.893 81.6586 424.434 81.8335 424.989 81.8335C425.546 81.8335 426.085 81.6586 426.527 81.335C426.971 81.0114 427.284 80.5618 427.435 80.0463C427.507 79.8037 427.538 79.5591 427.555 79.307C427.569 79.0286 427.569 78.7539 427.569 78.4755V78.4699V30.6396V30.6339C427.569 30.3574 427.569 30.0809 427.555 29.8024Z" fill="white" fill-opacity="0.4"/>
<path fill-rule="evenodd" clip-rule="evenodd" d="M438.762 7.42721C438.611 6.91363 438.298 6.46402 437.854 6.14044C437.412 5.81687 436.873 5.6438 436.316 5.6438C435.761 5.6438 435.22 5.81687 434.778 6.14044C434.335 6.46402 434.021 6.91363 433.87 7.42721C433.798 7.67177 433.767 7.91821 433.751 8.16841C433.736 8.44683 433.736 8.72337 433.736 8.99991V100.11C433.736 100.388 433.736 100.663 433.751 100.941C433.767 101.193 433.798 101.438 433.87 101.681C434.021 102.196 434.335 102.646 434.778 102.969C435.22 103.293 435.761 103.468 436.316 103.468C436.873 103.468 437.412 103.293 437.854 102.969C438.298 102.646 438.611 102.196 438.762 101.681C438.834 101.438 438.865 101.193 438.882 100.941C438.896 100.663 438.896 100.388 438.896 100.11V8.99991C438.896 8.72337 438.896 8.44683 438.882 8.16841C438.865 7.91821 438.834 7.67177 438.762 7.42721Z" fill="white" fill-opacity="0.4"/>
<path fill-rule="evenodd" clip-rule="evenodd" d="M450.209 6.28682C450.192 6.03661 450.161 5.79017 450.089 5.54561C449.938 5.03204 449.624 4.58242 449.181 4.25885C448.739 3.93528 448.2 3.76221 447.643 3.76221C447.088 3.76221 446.547 3.93528 446.105 4.25885C445.662 4.58242 445.348 5.03204 445.197 5.54561C445.125 5.79017 445.094 6.03661 445.077 6.28682C445.063 6.56524 445.063 6.84178 445.063 7.11832V7.12397V101.985V101.991C445.063 102.269 445.063 102.544 445.077 102.822C445.094 103.074 445.125 103.319 445.197 103.561C445.348 104.077 445.662 104.527 446.105 104.85C446.547 105.174 447.088 105.349 447.643 105.349C448.2 105.349 448.739 105.174 449.181 104.85C449.624 104.527 449.938 104.077 450.089 103.561C450.161 103.319 450.192 103.074 450.209 102.822C450.223 102.544 450.223 102.269 450.223 101.991V101.985V7.12397V7.11832C450.223 6.84178 450.223 6.56524 450.209 6.28682Z" fill="white" fill-opacity="0.4"/>
<path fill-rule="evenodd" clip-rule="evenodd" d="M461.415 40.3486C461.265 39.835 460.951 39.3854 460.507 39.0618C460.065 38.7383 459.527 38.5652 458.969 38.5652C458.414 38.5652 457.873 38.7383 457.432 39.0618C456.988 39.3854 456.674 39.835 456.524 40.3486C456.451 40.5932 456.42 40.8396 456.404 41.0898C456.389 41.3682 456.389 41.6448 456.389 41.9213V67.1881C456.389 67.4646 456.389 67.7412 456.404 68.0196C456.42 68.2717 456.451 68.5163 456.524 68.7589C456.674 69.2744 456.988 69.724 457.432 70.0476C457.873 70.3711 458.414 70.5461 458.969 70.5461C459.527 70.5461 460.065 70.3711 460.507 70.0476C460.951 69.724 461.265 69.2744 461.415 68.7589C461.488 68.5163 461.518 68.2717 461.535 68.0196C461.549 67.7412 461.549 67.4646 461.549 67.1881V41.9213C461.549 41.6448 461.549 41.3682 461.535 41.0898C461.518 40.8396 461.488 40.5932 461.415 40.3486Z" fill="white" fill-opacity="0.4"/>
<path fill-rule="evenodd" clip-rule="evenodd" d="M472.862 12.8713C472.845 12.6211 472.814 12.3746 472.742 12.1301C472.592 11.6165 472.278 11.1669 471.834 10.8433C471.392 10.5198 470.854 10.3467 470.296 10.3467C469.741 10.3467 469.2 10.5198 468.759 10.8433C468.315 11.1669 468.001 11.6165 467.85 12.1301C467.778 12.3746 467.747 12.6211 467.731 12.8713C467.716 13.1497 467.716 13.4263 467.716 13.7028V13.7084V95.4009V95.4065C467.716 95.6849 467.716 95.9596 467.731 96.238C467.747 96.4901 467.778 96.7346 467.85 96.9773C468.001 97.4928 468.315 97.9424 468.759 98.266C469.2 98.5895 469.741 98.7645 470.296 98.7645C470.854 98.7645 471.392 98.5895 471.834 98.266C472.278 97.9424 472.592 97.4928 472.742 96.9773C472.814 96.7346 472.845 96.4901 472.862 96.238C472.876 95.9596 472.876 95.6849 472.876 95.4065V95.4009V13.7084V13.7028C472.876 13.4263 472.876 13.1497 472.862 12.8713Z" fill="white" fill-opacity="0.4"/>
<path fill-rule="evenodd" clip-rule="evenodd" d="M484.069 36.5861C483.918 36.0726 483.604 35.623 483.161 35.2994C482.719 34.9758 482.18 34.8027 481.623 34.8027C481.068 34.8027 480.527 34.9758 480.085 35.2994C479.642 35.623 479.328 36.0726 479.177 36.5861C479.105 36.8307 479.074 37.0771 479.057 37.3273C479.043 37.6058 479.043 37.8823 479.043 38.1588V70.9506C479.043 71.229 479.043 71.5037 479.057 71.7821C479.074 72.0342 479.105 72.2787 479.177 72.5214C479.328 73.0369 479.642 73.4865 480.085 73.81C480.527 74.1336 481.068 74.3086 481.623 74.3086C482.18 74.3086 482.719 74.1336 483.161 73.81C483.604 73.4865 483.918 73.0369 484.069 72.5214C484.141 72.2787 484.172 72.0342 484.189 71.7821C484.203 71.5037 484.203 71.229 484.203 70.9506V38.1588C484.203 37.8823 484.203 37.6058 484.189 37.3273C484.172 37.0771 484.141 36.8307 484.069 36.5861Z" fill="white" fill-opacity="0.4"/>
<path fill-rule="evenodd" clip-rule="evenodd" d="M495.515 40.1491C495.499 39.8989 495.468 39.6525 495.396 39.4079C495.245 38.8943 494.931 38.4447 494.488 38.1212C494.046 37.7976 493.507 37.6245 492.95 37.6245C492.395 37.6245 491.854 37.7976 491.412 38.1212C490.968 38.4447 490.655 38.8943 490.504 39.4079C490.432 39.6525 490.401 39.8989 490.384 40.1491C490.37 40.4275 490.37 40.7041 490.37 40.9806V40.9863V68.123V68.1287C490.37 68.4071 490.37 68.6817 490.384 68.9602C490.401 69.2123 490.432 69.4568 490.504 69.6995C490.655 70.2149 490.968 70.6646 491.412 70.9881C491.854 71.3117 492.395 71.4867 492.95 71.4867C493.507 71.4867 494.046 71.3117 494.488 70.9881C494.931 70.6646 495.245 70.2149 495.396 69.6995C495.468 69.4568 495.499 69.2123 495.515 68.9602C495.53 68.6817 495.53 68.4071 495.53 68.1287V68.123V40.9863V40.9806C495.53 40.7041 495.53 40.4275 495.515 40.1491Z" fill="white" fill-opacity="0.4"/>
<path fill-rule="evenodd" clip-rule="evenodd" d="M506.842 23.2182C506.826 22.968 506.795 22.7216 506.722 22.477C506.572 21.9634 506.258 21.5138 505.814 21.1902C505.373 20.8667 504.834 20.6936 504.277 20.6936C503.721 20.6936 503.181 20.8667 502.739 21.1902C502.295 21.5138 501.981 21.9634 501.831 22.477C501.758 22.7216 501.727 22.968 501.711 23.2182C501.697 23.4966 501.697 23.7732 501.697 24.0497V24.0554V85.0543V85.0599C501.697 85.3383 501.697 85.613 501.711 85.8914C501.727 86.1435 501.758 86.3881 501.831 86.6307C501.981 87.1462 502.295 87.5958 502.739 87.9194C503.181 88.243 503.721 88.4179 504.277 88.4179C504.834 88.4179 505.373 88.243 505.814 87.9194C506.258 87.5958 506.572 87.1462 506.722 86.6307C506.795 86.3881 506.826 86.1435 506.842 85.8914C506.857 85.613 506.857 85.3383 506.857 85.0599V85.0543V24.0554V24.0497C506.857 23.7732 506.857 23.4966 506.842 23.2182Z" fill="white" fill-opacity="0.4"/>
<path fill-rule="evenodd" clip-rule="evenodd" d="M518.169 25.0991C518.152 24.8489 518.121 24.6024 518.049 24.3579C517.898 23.8443 517.585 23.3947 517.141 23.0711C516.699 22.7475 516.16 22.5745 515.603 22.5745C515.048 22.5745 514.507 22.7475 514.066 23.0711C513.622 23.3947 513.308 23.8443 513.157 24.3579C513.085 24.6024 513.054 24.8489 513.038 25.0991C513.023 25.3775 513.023 25.654 513.023 25.9306V25.9362V83.1727V83.1783C513.023 83.4567 513.023 83.7314 513.038 84.0098C513.054 84.2619 513.085 84.5064 513.157 84.7491C513.308 85.2646 513.622 85.7142 514.066 86.0378C514.507 86.3613 515.048 86.5363 515.603 86.5363C516.16 86.5363 516.699 86.3613 517.141 86.0378C517.585 85.7142 517.898 85.2646 518.049 84.7491C518.121 84.5064 518.152 84.2619 518.169 84.0098C518.183 83.7314 518.183 83.4567 518.183 83.1783V83.1727V25.9362V25.9306C518.183 25.654 518.183 25.3775 518.169 25.0991Z" fill="white" fill-opacity="0.4"/>
<path fill-rule="evenodd" clip-rule="evenodd" d="M529.376 37.5268C529.225 37.0132 528.912 36.5636 528.468 36.2401C528.026 35.9165 527.487 35.7434 526.93 35.7434C526.375 35.7434 525.834 35.9165 525.392 36.2401C524.949 36.5636 524.635 37.0132 524.484 37.5268C524.412 37.7714 524.381 38.0178 524.365 38.268C524.35 38.5464 524.35 38.823 524.35 39.0995V70.01C524.35 70.2884 524.35 70.5631 524.365 70.8415C524.381 71.0936 524.412 71.3382 524.484 71.5808C524.635 72.0963 524.949 72.5459 525.392 72.8695C525.834 73.1931 526.375 73.368 526.93 73.368C527.487 73.368 528.026 73.1931 528.468 72.8695C528.912 72.5459 529.225 72.0963 529.376 71.5808C529.448 71.3382 529.479 71.0936 529.496 70.8415C529.51 70.5631 529.51 70.2884 529.51 70.01V39.0995C529.51 38.823 529.51 38.5464 529.496 38.268C529.479 38.0178 529.448 37.7714 529.376 37.5268Z" fill="white" fill-opacity="0.4"/>
<path fill-rule="evenodd" clip-rule="evenodd" d="M540.822 26.9807C540.806 26.7305 540.775 26.484 540.703 26.2395C540.552 25.7259 540.238 25.2763 539.794 24.9527C539.353 24.6291 538.814 24.4561 538.257 24.4561C537.702 24.4561 537.161 24.6291 536.719 24.9527C536.275 25.2763 535.962 25.7259 535.811 26.2395C535.739 26.484 535.708 26.7305 535.691 26.9807C535.677 27.2591 535.677 27.5356 535.677 27.8122V27.8178V81.2918V81.2974C535.677 81.5758 535.677 81.8505 535.691 82.1289C535.708 82.381 535.739 82.6256 535.811 82.8682C535.962 83.3837 536.275 83.8333 536.719 84.1569C537.161 84.4805 537.702 84.6554 538.257 84.6554C538.814 84.6554 539.353 84.4805 539.794 84.1569C540.238 83.8333 540.552 83.3837 540.703 82.8682C540.775 82.6256 540.806 82.381 540.822 82.1289C540.837 81.8505 540.837 81.5758 540.837 81.2974V81.2918V27.8178V27.8122C540.837 27.5356 540.837 27.2591 540.822 26.9807Z" fill="white" fill-opacity="0.4"/>
<path fill-rule="evenodd" clip-rule="evenodd" d="M552.029 1.78316C551.879 1.26959 551.565 0.819972 551.121 0.496401C550.679 0.172829 550.141 -0.000244141 549.583 -0.000244141C549.028 -0.000244141 548.487 0.172829 548.046 0.496401C547.602 0.819972 547.288 1.26959 547.138 1.78316C547.065 2.02772 547.034 2.27416 547.018 2.52437C547.003 2.80279 547.003 3.07933 547.003 3.35587V105.753C547.003 106.032 547.003 106.306 547.018 106.585C547.034 106.837 547.065 107.081 547.138 107.324C547.288 107.839 547.602 108.289 548.046 108.613C548.487 108.936 549.028 109.111 549.583 109.111C550.141 109.111 550.679 108.936 551.121 108.613C551.565 108.289 551.879 107.839 552.029 107.324C552.102 107.081 552.132 106.837 552.149 106.585C552.163 106.306 552.163 106.032 552.163 105.753V3.35587C552.163 3.07933 552.163 2.80279 552.149 2.52437C552.132 2.27416 552.102 2.02772 552.029 1.78316Z" fill="white" fill-opacity="0.4"/>
<path fill-rule="evenodd" clip-rule="evenodd" d="M563.476 36.3867C563.459 36.1365 563.428 35.89 563.356 35.6455C563.206 35.1319 562.892 34.6823 562.448 34.3587C562.006 34.0351 561.468 33.8621 560.91 33.8621C560.355 33.8621 559.814 34.0351 559.373 34.3587C558.929 34.6823 558.615 35.1319 558.464 35.6455C558.392 35.89 558.361 36.1365 558.345 36.3867C558.33 36.6651 558.33 36.9416 558.33 37.2182V37.2238V71.8855V71.8911C558.33 72.1696 558.33 72.4442 558.345 72.7226C558.361 72.9747 558.392 73.2193 558.464 73.462C558.615 73.9774 558.929 74.427 559.373 74.7506C559.814 75.0742 560.355 75.2491 560.91 75.2491C561.468 75.2491 562.006 75.0742 562.448 74.7506C562.892 74.427 563.206 73.9774 563.356 73.462C563.428 73.2193 563.459 72.9747 563.476 72.7226C563.49 72.4442 563.49 72.1696 563.49 71.8911V71.8855V37.2238V37.2182C563.49 36.9416 563.49 36.6651 563.476 36.3867Z" fill="white" fill-opacity="0.4"/>
<path fill-rule="evenodd" clip-rule="evenodd" d="M574.683 41.2893C574.532 40.7757 574.218 40.3261 573.775 40.0025C573.333 39.6789 572.794 39.5059 572.237 39.5059C571.682 39.5059 571.141 39.6789 570.699 40.0025C570.256 40.3261 569.942 40.7757 569.791 41.2893C569.719 41.5338 569.688 41.7803 569.671 42.0305C569.657 42.3089 569.657 42.5854 569.657 42.862V66.2475C569.657 66.5241 569.657 66.8006 569.671 67.079C569.688 67.3311 569.719 67.5757 569.791 67.8184C569.942 68.3338 570.256 68.7834 570.699 69.107C571.141 69.4306 571.682 69.6055 572.237 69.6055C572.794 69.6055 573.333 69.4306 573.775 69.107C574.218 68.7834 574.532 68.3338 574.683 67.8184C574.755 67.5757 574.786 67.3311 574.803 67.079C574.817 66.8006 574.817 66.5241 574.817 66.2475V42.862C574.817 42.5854 574.817 42.3089 574.803 42.0305C574.786 41.7803 574.755 41.5338 574.683 41.2893Z" fill="white" fill-opacity="0.4"/>
<path fill-rule="evenodd" clip-rule="evenodd" d="M586.129 36.3867C586.113 36.1365 586.082 35.89 586.01 35.6455C585.859 35.1319 585.545 34.6823 585.102 34.3587C584.66 34.0351 584.121 33.8621 583.564 33.8621C583.009 33.8621 582.468 34.0351 582.026 34.3587C581.582 34.6823 581.269 35.1319 581.118 35.6455C581.046 35.89 581.015 36.1365 580.998 36.3867C580.984 36.6651 580.984 36.9416 580.984 37.2182V37.2238V71.8855V71.8911C580.984 72.1696 580.984 72.4442 580.998 72.7226C581.015 72.9747 581.046 73.2193 581.118 73.462C581.269 73.9774 581.582 74.427 582.026 74.7506C582.468 75.0742 583.009 75.2491 583.564 75.2491C584.121 75.2491 584.66 75.0742 585.102 74.7506C585.545 74.427 585.859 73.9774 586.01 73.462C586.082 73.2193 586.113 72.9747 586.129 72.7226C586.144 72.4442 586.144 72.1696 586.144 71.8911V71.8855V37.2238V37.2182C586.144 36.9416 586.144 36.6651 586.129 36.3867Z" fill="white" fill-opacity="0.4"/>
<path fill-rule="evenodd" clip-rule="evenodd" d="M597.336 45.0517C597.186 44.5381 596.872 44.0885 596.428 43.765C595.987 43.4414 595.448 43.2683 594.891 43.2683C594.335 43.2683 593.795 43.4414 593.353 43.765C592.909 44.0885 592.595 44.5381 592.445 45.0517C592.372 45.2963 592.342 45.5427 592.325 45.7929C592.311 46.0713 592.311 46.3479 592.311 46.6244V62.4851C592.311 62.7616 592.311 63.0382 592.325 63.3166C592.342 63.5687 592.372 63.8132 592.445 64.0578C592.595 64.5714 592.909 65.021 593.353 65.3445C593.795 65.6681 594.335 65.8431 594.891 65.8431C595.448 65.8431 595.987 65.6681 596.428 65.3445C596.872 65.021 597.186 64.5714 597.336 64.0578C597.409 63.8132 597.44 63.5687 597.456 63.3166C597.471 63.0382 597.471 62.7616 597.471 62.4851V46.6244C597.471 46.3479 597.471 46.0713 597.456 45.7929C597.44 45.5427 597.409 45.2963 597.336 45.0517Z" fill="white" fill-opacity="0.4"/>
<path fill-rule="evenodd" clip-rule="evenodd" d="M608.783 10.0493C608.766 9.79907 608.735 9.55262 608.663 9.30806C608.512 8.79449 608.199 8.34487 607.755 8.0213C607.313 7.69773 606.775 7.52466 606.217 7.52466C605.662 7.52466 605.121 7.69773 604.68 8.0213C604.236 8.34487 603.922 8.79449 603.771 9.30806C603.699 9.55262 603.668 9.79907 603.652 10.0493C603.637 10.3277 603.637 10.6042 603.637 10.8808V10.8864V98.2225V98.2282C603.637 98.5066 603.637 98.7813 603.652 99.0597C603.668 99.3118 603.699 99.5563 603.771 99.799C603.922 100.314 604.236 100.764 604.68 101.088C605.121 101.411 605.662 101.586 606.217 101.586C606.775 101.586 607.313 101.411 607.755 101.088C608.199 100.764 608.512 100.314 608.663 99.799C608.735 99.5563 608.766 99.3118 608.783 99.0597C608.797 98.7813 608.797 98.5066 608.797 98.2282V98.2225V10.8864V10.8808C608.797 10.6042 608.797 10.3277 608.783 10.0493Z" fill="white" fill-opacity="0.4"/>
<path fill-rule="evenodd" clip-rule="evenodd" d="M619.99 32.8237C619.839 32.3101 619.526 31.8605 619.082 31.5369C618.64 31.2134 618.101 31.0403 617.544 31.0403C616.989 31.0403 616.448 31.2134 616.006 31.5369C615.563 31.8605 615.249 32.3101 615.098 32.8237C615.026 33.0682 614.995 33.3147 614.979 33.5649C614.964 33.8433 614.964 34.1199 614.964 34.3964V34.402V74.7074V74.713C614.964 74.9915 614.964 75.2661 614.979 75.5445C614.995 75.7966 615.026 76.0412 615.098 76.2839C615.249 76.7993 615.563 77.2489 616.006 77.5725C616.448 77.8961 616.989 78.071 617.544 78.071C618.101 78.071 618.64 77.8961 619.082 77.5725C619.526 77.2489 619.839 76.7993 619.99 76.2839C620.062 76.0412 620.093 75.7966 620.11 75.5445C620.124 75.2661 620.124 74.9915 620.124 74.713V34.3964C620.124 34.1199 620.124 33.8433 620.11 33.5649C620.093 33.3147 620.062 33.0682 619.99 32.8237Z" fill="white" fill-opacity="0.4"/>
<path fill-rule="evenodd" clip-rule="evenodd" d="M631.436 47.674C631.42 47.4238 631.389 47.1774 631.317 46.9328C631.166 46.4192 630.852 45.9696 630.408 45.6461C629.967 45.3225 629.428 45.1494 628.871 45.1494C628.316 45.1494 627.775 45.3225 627.333 45.6461C626.889 45.9696 626.576 46.4192 626.425 46.9328C626.353 47.1774 626.322 47.4238 626.305 47.674C626.291 47.9524 626.291 48.229 626.291 48.5055V48.5112V60.5981V60.6037C626.291 60.8803 626.291 61.1568 626.305 61.4352C626.322 61.6873 626.353 61.9319 626.425 62.1764C626.576 62.69 626.889 63.1396 627.333 63.4632C627.775 63.7868 628.316 63.9617 628.871 63.9617C629.428 63.9617 629.967 63.7868 630.408 63.4632C630.852 63.1396 631.166 62.69 631.317 62.1764C631.389 61.9319 631.42 61.6873 631.436 61.4352C631.451 61.1568 631.451 60.8803 631.451 60.6037V60.5981V48.5112V48.5055C631.451 48.229 631.451 47.9524 631.436 47.674Z" fill="white" fill-opacity="0.4"/>
<path fill-rule="evenodd" clip-rule="evenodd" d="M642.643 48.8142C642.493 48.3006 642.179 47.851 641.735 47.5274C641.293 47.2038 640.755 47.0308 640.197 47.0308C639.642 47.0308 639.101 47.2038 638.66 47.5274C638.216 47.851 637.902 48.3006 637.752 48.8142C637.679 49.0587 637.648 49.3052 637.632 49.5554C637.617 49.8338 637.617 50.1103 637.617 50.3869V58.7226C637.617 58.9991 637.617 59.2757 637.632 59.5541C637.648 59.8062 637.679 60.0508 637.752 60.2953C637.902 60.8089 638.216 61.2585 638.66 61.5821C639.101 61.9056 639.642 62.0806 640.197 62.0806C640.755 62.0806 641.293 61.9056 641.735 61.5821C642.179 61.2585 642.493 60.8089 642.643 60.2953C642.716 60.0508 642.746 59.8062 642.763 59.5541C642.777 59.2757 642.777 58.9991 642.777 58.7226V50.3869C642.777 50.1103 642.777 49.8338 642.763 49.5554C642.746 49.3052 642.716 49.0587 642.643 48.8142Z" fill="white" fill-opacity="0.4"/>
<path fill-rule="evenodd" clip-rule="evenodd" d="M654.09 32.6242C654.073 32.374 654.042 32.1276 653.97 31.883C653.82 31.3694 653.506 30.9198 653.062 30.5963C652.62 30.2727 652.082 30.0996 651.524 30.0996C650.969 30.0996 650.428 30.2727 649.987 30.5963C649.543 30.9198 649.229 31.3694 649.078 31.883C649.006 32.1276 648.975 32.374 648.959 32.6242C648.944 32.9026 648.944 33.1792 648.944 33.4557V33.4614V75.648V75.6536C648.944 75.932 648.944 76.2067 648.959 76.4851C648.975 76.7372 649.006 76.9817 649.078 77.2244C649.229 77.7399 649.543 78.1895 649.987 78.5131C650.428 78.8366 650.969 79.0116 651.524 79.0116C652.082 79.0116 652.62 78.8366 653.062 78.5131C653.506 78.1895 653.82 77.7399 653.97 77.2244C654.042 76.9817 654.073 76.7372 654.09 76.4851C654.104 76.2067 654.104 75.932 654.104 75.6536V75.648V33.4614V33.4557C654.104 33.1792 654.104 32.9026 654.09 32.6242Z" fill="white" fill-opacity="0.4"/>
<path fill-rule="evenodd" clip-rule="evenodd" d="M665.297 35.6455C665.146 35.1319 664.832 34.6823 664.389 34.3587C663.947 34.0351 663.408 33.8621 662.851 33.8621C662.296 33.8621 661.755 34.0351 661.313 34.3587C660.87 34.6823 660.556 35.1319 660.405 35.6455C660.333 35.89 660.302 36.1365 660.285 36.3867C660.271 36.6651 660.271 36.9416 660.271 37.2182V71.8911C660.271 72.1696 660.271 72.4442 660.285 72.7226C660.302 72.9747 660.333 73.2193 660.405 73.462C660.556 73.9774 660.87 74.427 661.313 74.7506C661.755 75.0742 662.296 75.2491 662.851 75.2491C663.408 75.2491 663.947 75.0742 664.389 74.7506C664.832 74.427 665.146 73.9774 665.297 73.462C665.369 73.2193 665.4 72.9747 665.417 72.7226C665.431 72.4442 665.431 72.1696 665.431 71.8911V37.2182C665.431 36.9416 665.431 36.6651 665.417 36.3867C665.4 36.1365 665.369 35.89 665.297 35.6455Z" fill="white" fill-opacity="0.4"/>
<path fill-rule="evenodd" clip-rule="evenodd" d="M676.743 38.268C676.727 38.0178 676.696 37.7714 676.624 37.5268C676.473 37.0132 676.159 36.5636 675.715 36.2401C675.274 35.9165 674.735 35.7434 674.178 35.7434C673.622 35.7434 673.082 35.9165 672.64 36.2401C672.196 36.5636 671.882 37.0132 671.732 37.5268C671.66 37.7714 671.629 38.0178 671.612 38.268C671.598 38.5464 671.598 38.823 671.598 39.0995V39.1052V70.0044V70.01C671.598 70.2884 671.598 70.5631 671.612 70.8415C671.629 71.0936 671.66 71.3382 671.732 71.5808C671.882 72.0963 672.196 72.5459 672.64 72.8695C673.082 73.1931 673.622 73.368 674.178 73.368C674.735 73.368 675.274 73.1931 675.715 72.8695C676.159 72.5459 676.473 72.0963 676.624 71.5808C676.696 71.3382 676.727 71.0936 676.743 70.8415C676.758 70.5631 676.758 70.2884 676.758 70.01V70.0044V39.1052V39.0995C676.758 38.823 676.758 38.5464 676.743 38.268Z" fill="white" fill-opacity="0.4"/>
<path fill-rule="evenodd" clip-rule="evenodd" d="M687.95 42.2299C687.8 41.7164 687.486 41.2667 687.042 40.9432C686.6 40.6196 686.062 40.4465 685.504 40.4465C684.949 40.4465 684.408 40.6196 683.967 40.9432C683.523 41.2667 683.209 41.7164 683.058 42.2299C682.986 42.4745 682.955 42.7209 682.939 42.9711C682.924 43.2496 682.924 43.5261 682.924 43.8026V65.307C682.924 65.5835 682.924 65.8601 682.939 66.1385C682.955 66.3906 682.986 66.6351 683.058 66.8797C683.209 67.3933 683.523 67.8429 683.967 68.1665C684.408 68.49 684.949 68.665 685.504 68.665C686.062 68.665 686.6 68.49 687.042 68.1665C687.486 67.8429 687.8 67.3933 687.95 66.8797C688.022 66.6351 688.053 66.3906 688.07 66.1385C688.084 65.8601 688.084 65.5835 688.084 65.307V43.8026C688.084 43.5261 688.084 43.2496 688.07 42.9711C688.053 42.7209 688.022 42.4745 687.95 42.2299Z" fill="white" fill-opacity="0.4"/>
<path fill-rule="evenodd" clip-rule="evenodd" d="M699.394 45.7929C699.38 45.5427 699.349 45.2963 699.279 45.0517C699.126 44.5381 698.815 44.0885 698.369 43.765C697.927 43.4414 697.388 43.2683 696.831 43.2683C696.274 43.2683 695.735 43.4414 695.293 43.765C694.85 44.0885 694.536 44.5381 694.385 45.0517C694.313 45.2963 694.282 45.5427 694.265 45.7929C694.251 46.0713 694.251 46.3479 694.251 46.6244V46.6301V62.4794V62.4851C694.251 62.7616 694.251 63.0382 694.265 63.3166C694.282 63.5687 694.313 63.8132 694.385 64.0578C694.536 64.5714 694.85 65.021 695.293 65.3445C695.735 65.6681 696.274 65.8431 696.831 65.8431C697.388 65.8431 697.927 65.6681 698.369 65.3445C698.815 65.021 699.126 64.5714 699.279 64.0578C699.349 63.8132 699.38 63.5687 699.394 63.3166C699.413 63.0382 699.411 62.7616 699.411 62.4851V62.4794V46.6301V46.6244C699.411 46.3479 699.413 46.0713 699.394 45.7929Z" fill="white" fill-opacity="0.4"/>
<path fill-rule="evenodd" clip-rule="evenodd" d="M710.606 52.5766C710.453 52.063 710.141 51.6134 709.696 51.2899C709.254 50.9663 708.715 50.7932 708.158 50.7932C707.601 50.7932 707.062 50.9663 706.62 51.2899C706.174 51.6134 705.863 52.063 705.71 52.5766C705.64 52.8212 705.609 53.0676 705.594 53.3178C705.576 53.5962 705.578 53.8728 705.578 54.1493V54.155V54.9545V54.9601C705.578 55.2367 705.576 55.5132 705.594 55.7916C705.609 56.0437 705.64 56.2883 705.71 56.5328C705.863 57.0464 706.174 57.496 706.62 57.8196C707.062 58.1432 707.601 58.3181 708.158 58.3181C708.715 58.3181 709.254 58.1432 709.696 57.8196C710.141 57.496 710.453 57.0464 710.606 56.5328C710.676 56.2883 710.707 56.0437 710.721 55.7916C710.74 55.5132 710.738 55.2367 710.738 54.9601V54.1493C710.738 53.8728 710.74 53.5962 710.721 53.3178C710.707 53.0676 710.676 52.8212 710.606 52.5766Z" fill="white" fill-opacity="0.4"/>
<path fill-rule="evenodd" clip-rule="evenodd" d="M722.048 49.5554C722.034 49.3052 722.003 49.0587 721.933 48.8142C721.78 48.3006 721.468 47.851 721.023 47.5274C720.581 47.2038 720.042 47.0308 719.485 47.0308C718.928 47.0308 718.389 47.2038 717.947 47.5274C717.501 47.851 717.19 48.3006 717.037 48.8142C716.967 49.0587 716.936 49.3052 716.921 49.5554C716.903 49.8338 716.905 50.1103 716.905 50.3869V50.3925V58.717V58.7226C716.905 58.9991 716.903 59.2757 716.921 59.5541C716.936 59.8062 716.967 60.0508 717.037 60.2953C717.19 60.8089 717.501 61.2585 717.947 61.5821C718.389 61.9056 718.928 62.0806 719.485 62.0806C720.042 62.0806 720.581 61.9056 721.023 61.5821C721.468 61.2585 721.78 60.8089 721.933 60.2953C722.003 60.0508 722.034 59.8062 722.048 59.5541C722.067 59.2757 722.065 58.9991 722.065 58.7226V58.717V50.3925V50.3869C722.065 50.1103 722.067 49.8338 722.048 49.5554Z" fill="white" fill-opacity="0.4"/>
<path fill-rule="evenodd" clip-rule="evenodd" d="M733.375 49.5554C733.361 49.3052 733.33 49.0587 733.26 48.8142C733.107 48.3006 732.795 47.851 732.349 47.5274C731.908 47.2038 731.369 47.0308 730.812 47.0308C730.254 47.0308 729.716 47.2038 729.274 47.5274C728.828 47.851 728.517 48.3006 728.364 48.8142C728.294 49.0587 728.263 49.3052 728.248 49.5554C728.23 49.8338 728.232 50.1103 728.232 50.3869V50.3925V58.717V58.7226C728.232 58.9991 728.23 59.2757 728.248 59.5541C728.263 59.8062 728.294 60.0508 728.364 60.2953C728.517 60.8089 728.828 61.2585 729.274 61.5821C729.716 61.9056 730.254 62.0806 730.812 62.0806C731.369 62.0806 731.908 61.9056 732.349 61.5821C732.795 61.2585 733.107 60.8089 733.26 60.2953C733.33 60.0508 733.361 59.8062 733.375 59.5541C733.394 59.2757 733.392 58.9991 733.392 58.7226V58.717V50.3925V50.3869C733.392 50.1103 733.394 49.8338 733.375 49.5554Z" fill="white" fill-opacity="0.4"/>
<path fill-rule="evenodd" clip-rule="evenodd" d="M744.587 51.6359C744.434 51.1224 744.122 50.6728 743.676 50.3492C743.235 50.0256 742.696 49.8525 742.139 49.8525C741.581 49.8525 741.043 50.0256 740.601 50.3492C740.155 50.6728 739.843 51.1224 739.691 51.6359C739.621 51.8805 739.59 52.1269 739.575 52.3771C739.557 52.6556 739.559 52.9321 739.559 53.2087V53.2143V55.8951V55.9007C739.559 56.1772 739.557 56.4538 739.575 56.7322C739.59 56.9843 739.621 57.2288 739.691 57.4734C739.843 57.987 740.155 58.4366 740.601 58.7602C741.043 59.0837 741.581 59.2587 742.139 59.2587C742.696 59.2587 743.235 59.0837 743.676 58.7602C744.122 58.4366 744.434 57.987 744.587 57.4734C744.657 57.2288 744.688 56.9843 744.702 56.7322C744.721 56.4538 744.719 56.1772 744.719 55.9007V53.2087C744.719 52.9321 744.721 52.6556 744.702 52.3771C744.688 52.1269 744.657 51.8805 744.587 51.6359Z" fill="white" fill-opacity="0.4"/>
<path fill-rule="evenodd" clip-rule="evenodd" d="M755.913 52.5766C755.761 52.063 755.449 51.6134 755.003 51.2899C754.562 50.9663 754.023 50.7932 753.466 50.7932C752.908 50.7932 752.37 50.9663 751.928 51.2899C751.482 51.6134 751.17 52.063 751.018 52.5766C750.947 52.8212 750.917 53.0676 750.902 53.3178C750.884 53.5962 750.886 53.8728 750.886 54.1493V54.9601C750.886 55.2367 750.884 55.5132 750.902 55.7916C750.917 56.0437 750.947 56.2883 751.018 56.5328C751.17 57.0464 751.482 57.496 751.928 57.8196C752.37 58.1432 752.908 58.3181 753.466 58.3181C754.023 58.3181 754.562 58.1432 755.003 57.8196C755.449 57.496 755.761 57.0464 755.913 56.5328C755.984 56.2883 756.015 56.0437 756.029 55.7916C756.048 55.5132 756.046 55.2367 756.046 54.9601V54.1493C756.046 53.8728 756.048 53.5962 756.029 53.3178C756.015 53.0676 755.984 52.8212 755.913 52.5766Z" fill="white" fill-opacity="0.4"/>
<path fill-rule="evenodd" clip-rule="evenodd" d="M766.21 53.1712C765.769 52.8476 765.23 52.6746 764.673 52.6746C764.115 52.6746 763.577 52.8476 763.135 53.1712C762.689 53.4948 762.378 53.9444 762.225 54.458C762.219 54.4899 762.221 54.5238 762.212 54.5558C762.221 54.5878 762.219 54.6198 762.225 54.6517C762.378 55.1653 762.689 55.6149 763.135 55.9385C763.577 56.2621 764.115 56.437 764.673 56.437C765.23 56.437 765.769 56.2621 766.21 55.9385C766.656 55.6149 766.968 55.1653 767.121 54.6517C767.127 54.6198 767.125 54.5878 767.133 54.5558C767.125 54.5238 767.127 54.4899 767.121 54.458C766.968 53.9444 766.656 53.4948 766.21 53.1712Z" fill="white" fill-opacity="0.4"/>
<path fill-rule="evenodd" clip-rule="evenodd" d="M777.298 53.1712C776.856 52.8476 776.317 52.6746 775.76 52.6746C775.203 52.6746 774.664 52.8476 774.222 53.1712C773.777 53.4948 773.465 53.9444 773.312 54.458C773.306 54.4899 773.308 54.5238 773.3 54.5558C773.308 54.5878 773.306 54.6198 773.312 54.6517C773.465 55.1653 773.777 55.6149 774.222 55.9385C774.664 56.2621 775.203 56.437 775.76 56.437C776.317 56.437 776.856 56.2621 777.298 55.9385C777.744 55.6149 778.055 55.1653 778.208 54.6517C778.214 54.6198 778.212 54.5878 778.22 54.5558C778.212 54.5238 778.214 54.4899 778.208 54.458C778.055 53.9444 777.744 53.4948 777.298 53.1712Z" fill="white" fill-opacity="0.4"/>
<path fill-rule="evenodd" clip-rule="evenodd" d="M788.385 53.1712C787.943 52.8476 787.405 52.6746 786.848 52.6746C786.29 52.6746 785.752 52.8476 785.31 53.1712C784.864 53.4948 784.552 53.9444 784.4 54.458C784.393 54.4899 784.395 54.5238 784.387 54.5558C784.395 54.5878 784.393 54.6198 784.4 54.6517C784.552 55.1653 784.864 55.6149 785.31 55.9385C785.752 56.2621 786.29 56.437 786.848 56.437C787.405 56.437 787.943 56.2621 788.385 55.9385C788.831 55.6149 789.143 55.1653 789.295 54.6517C789.302 54.6198 789.3 54.5878 789.308 54.5558C789.3 54.5238 789.302 54.4899 789.295 54.458C789.143 53.9444 788.831 53.4948 788.385 53.1712Z" fill="white" fill-opacity="0.4"/>
</svg>
